<svg width="15" height="14" viewBox="0 0 15 14" fill="none" xmlns="http://www.w3.org/2000/svg">
<path d="M7.41667 3.41667C7.41667 2.70942 7.13571 2.03115 6.63562 1.53105C6.13552 1.03095 5.45724 0.75 4.75 0.75H0.75V10.75H5.41667C5.9471 10.75 6.45581 10.9607 6.83088 11.3358C7.20595 11.7109 7.41667 12.2196 7.41667 12.75M7.41667 3.41667V12.75M7.41667 3.41667C7.41667 2.70942 7.69762 2.03115 8.19772 1.53105C8.69781 1.03095 9.37609 0.75 10.0833 0.75H14.0833V10.75H9.41667C8.88623 10.75 8.37753 10.9607 8.00245 11.3358C7.62738 11.7109 7.41667 12.2196 7.41667 12.75" stroke="#899C9F" stroke-width="1.5" stroke-linecap="round" stroke-linejoin="round"/>
</svg>
