<svg width="40" height="40" viewBox="0 0 40 40" fill="none" xmlns="http://www.w3.org/2000/svg">
<path d="M34.2401 30.9336C32.1489 33.6383 29.3306 35.6916 26.115 36.8531C22.8995 38.0146 19.4196 38.2362 16.0826 37.4922C12.7457 36.7481 9.68962 35.0691 7.27208 32.6516C4.85454 30.234 3.17551 27.178 2.43145 23.841C1.68738 20.504 1.90906 17.0242 3.07055 13.8086C4.23204 10.593 6.28529 7.77473 8.99006 5.68351C11.6948 3.59228 14.9392 2.31461 18.3436 2C16.3505 4.69653 15.3913 8.0189 15.6407 11.3628C15.8901 14.7068 17.3314 17.8501 19.7024 20.2212C22.0735 22.5923 25.2169 24.0336 28.5608 24.2829C31.9047 24.5323 35.2271 23.5732 37.9236 21.58C37.9252 24.9721 36.2707 28.3072 34.2401 30.9336Z" stroke="#47D5EB" stroke-width="4" stroke-linecap="round" stroke-linejoin="round"/>
</svg>
