<svg width="42" height="41" viewBox="0 0 42 41" fill="none" xmlns="http://www.w3.org/2000/svg">
<path fill-rule="evenodd" clip-rule="evenodd" d="M13.3745 40.4354C14.2843 40.4354 15.1941 40.4354 16.104 40.4354C16.104 35.2754 16.104 30.1154 16.104 24.9554C12.1657 24.9554 8.22745 24.9554 4.28919 24.9554C4.28919 25.8262 4.28919 26.697 4.28919 27.5679C7.32418 27.5549 10.3526 27.5679 13.3745 27.6068C13.3745 31.8831 13.3745 36.1592 13.3745 40.4354Z" fill="#F9FAFA"/>
<path fill-rule="evenodd" clip-rule="evenodd" d="M13.3745 40.4354C14.2906 40.4743 15.2134 40.4874 16.143 40.4745C16.1559 35.2949 16.143 30.1218 16.104 24.9554C16.104 30.1154 16.104 35.2754 16.104 40.4354C15.1941 40.4354 14.2843 40.4354 13.3745 40.4354Z" fill="#F9FAFA"/>
<path fill-rule="evenodd" clip-rule="evenodd" d="M21.6409 40.4354C22.5508 40.4354 23.4606 40.4354 24.3704 40.4354C24.3704 35.2754 24.3704 30.1154 24.3704 24.9554C23.4606 24.9554 22.5508 24.9554 21.6409 24.9554C21.6409 30.1154 21.6409 35.2754 21.6409 40.4354Z" fill="#F9FAFA"/>
<path fill-rule="evenodd" clip-rule="evenodd" d="M21.6409 40.4354C22.557 40.4743 23.4799 40.4874 24.4094 40.4745C24.4094 35.2884 24.4094 30.1024 24.4094 24.9164C23.4799 24.9035 22.557 24.9164 21.6409 24.9554C22.5508 24.9554 23.4606 24.9554 24.3704 24.9554C24.3704 30.1154 24.3704 35.2754 24.3704 40.4354C23.4606 40.4354 22.5508 40.4354 21.6409 40.4354Z" fill="#F9FAFA"/>
<path fill-rule="evenodd" clip-rule="evenodd" d="M17.6247 36.3801C18.5345 36.3801 19.4444 36.3801 20.3542 36.3801C20.3542 32.5588 20.3542 28.7375 20.3542 24.9163C19.4444 24.9163 18.5345 24.9163 17.6247 24.9163C17.6247 28.7375 17.6247 32.5588 17.6247 36.3801Z" fill="#F9FAFA"/>
<path fill-rule="evenodd" clip-rule="evenodd" d="M28.6207 36.3801C28.6207 33.4427 28.6207 30.5052 28.6207 27.5678C33.0787 27.5678 37.5372 27.5678 41.9952 27.5678C41.9952 26.6839 41.9952 25.8001 41.9952 24.9163C36.6271 24.9163 31.2592 24.9163 25.8912 24.9163C25.8912 28.7375 25.8912 32.5588 25.8912 36.3801C26.801 36.3801 27.7109 36.3801 28.6207 36.3801Z" fill="#F9FAFA"/>
<path fill-rule="evenodd" clip-rule="evenodd" d="M28.6207 36.3801C28.6597 33.4622 28.6726 30.5378 28.6596 27.6067C33.1114 27.6197 37.5566 27.6067 41.9952 27.5678C37.5372 27.5678 33.0787 27.5678 28.6207 27.5678C28.6207 30.5052 28.6207 33.4427 28.6207 36.3801Z" fill="#F9FAFA"/>
<path fill-rule="evenodd" clip-rule="evenodd" d="M13.3745 27.6068C10.3526 27.5679 7.32418 27.5549 4.28919 27.5679C4.28919 26.697 4.28919 25.8262 4.28919 24.9554C8.22745 24.9554 12.1657 24.9554 16.104 24.9554C12.1593 24.9164 8.20801 24.9034 4.25021 24.9164C4.25021 25.8132 4.25021 26.7101 4.25021 27.6069C7.29164 27.6069 10.333 27.6068 13.3745 27.6068Z" fill="#F9FAFA"/>
<path fill-rule="evenodd" clip-rule="evenodd" d="M16.104 20.8611C10.7425 20.8222 5.37451 20.8092 0 20.8222C0 21.719 0 22.6158 0 23.5126C5.38098 23.5126 10.762 23.5126 16.143 23.5126C16.1559 22.6221 16.1428 21.7382 16.104 20.8611Z" fill="#F9FAFA"/>
<path fill-rule="evenodd" clip-rule="evenodd" d="M16.104 20.8611C10.749 20.8611 5.39395 20.861 0.0389747 20.861C0.0389747 21.7318 0.0389747 22.6027 0.0389747 23.4735C5.39395 23.4735 10.749 23.4735 16.1039 23.4735C16.1039 22.6027 16.104 21.732 16.104 20.8611Z" fill="#F9FAFA"/>
<path fill-rule="evenodd" clip-rule="evenodd" d="M20.3542 23.5126C20.3542 22.6288 20.3542 21.745 20.3542 20.8611C19.4444 20.8611 18.5345 20.8611 17.6247 20.8611C17.6247 21.745 17.6247 22.6288 17.6247 23.5126C18.5345 23.5126 19.4444 23.5126 20.3542 23.5126Z" fill="#F9FAFA"/>
<path fill-rule="evenodd" clip-rule="evenodd" d="M21.6409 23.4735C22.5508 23.4735 23.4606 23.4735 24.3704 23.4735C24.3704 22.6027 24.3704 21.7318 24.3704 20.861C23.4606 20.861 22.5508 20.861 21.6409 20.861C21.6409 21.7318 21.6409 22.6027 21.6409 23.4735Z" fill="#F9FAFA"/>
<path fill-rule="evenodd" clip-rule="evenodd" d="M21.6409 23.4735C22.557 23.5124 23.4799 23.5255 24.4094 23.5126C24.4094 22.6158 24.4094 21.719 24.4094 20.8221C23.4799 20.8092 22.557 20.8221 21.6409 20.861C22.5508 20.861 23.4606 20.861 24.3704 20.861C24.3704 21.7318 24.3704 22.6027 24.3704 23.4735C23.4606 23.4735 22.5508 23.4735 21.6409 23.4735Z" fill="#F9FAFA"/>
<path fill-rule="evenodd" clip-rule="evenodd" d="M25.8912 23.5126C29.8425 23.5126 33.7939 23.5126 37.745 23.5126C37.745 22.6288 37.745 21.745 37.745 20.8611C33.7939 20.8611 29.8425 20.8611 25.8912 20.8611C25.8912 21.745 25.8912 22.6288 25.8912 23.5126Z" fill="#F9FAFA"/>
<path fill-rule="evenodd" clip-rule="evenodd" d="M20.3542 23.5126C20.3931 22.6226 20.4061 21.7257 20.3932 20.8222C19.4636 20.8092 18.5408 20.8222 17.6247 20.8611C18.5345 20.8611 19.4444 20.8611 20.3542 20.8611C20.3542 21.745 20.3542 22.6288 20.3542 23.5126Z" fill="#F9FAFA"/>
<path fill-rule="evenodd" clip-rule="evenodd" d="M17.6247 19.6134C18.5345 19.6134 19.4444 19.6134 20.3542 19.6134C20.3542 18.7296 20.3542 17.8458 20.3542 16.9619C19.4444 16.9619 18.5345 16.9619 17.6247 16.9619C17.6247 17.8458 17.6247 18.7296 17.6247 19.6134Z" fill="#F9FAFA"/>
<path fill-rule="evenodd" clip-rule="evenodd" d="M24.3704 19.6134C24.3704 18.7426 24.3704 17.8718 24.3704 17.0009C23.4606 17.0009 22.5508 17.0009 21.6409 17.0009C21.6409 17.8718 21.6409 18.7426 21.6409 19.6134C22.5508 19.6134 23.4606 19.6134 24.3704 19.6134Z" fill="#F9FAFA"/>
<path fill-rule="evenodd" clip-rule="evenodd" d="M41.9562 19.6134C41.9562 18.7426 41.9562 17.8718 41.9562 17.0009C36.6013 17.0009 31.2462 17.0009 25.8912 17.0009C25.8912 17.8718 25.8912 18.7426 25.8912 19.6134C31.2462 19.6134 36.6013 19.6134 41.9562 19.6134Z" fill="#F9FAFA"/>
<path fill-rule="evenodd" clip-rule="evenodd" d="M4.28909 19.6134C4.28909 18.7426 4.28909 17.8718 4.28909 17.0009C8.22734 17.0009 12.1656 17.0009 16.1039 17.0009C16.1039 17.8718 16.1039 18.7426 16.1039 19.6134C16.1427 18.7363 16.1558 17.8525 16.1428 16.9619C12.1786 16.9619 8.21436 16.9619 4.25009 16.9619C4.23719 17.8525 4.25021 18.7363 4.28909 19.6134Z" fill="#F9FAFA"/>
<path fill-rule="evenodd" clip-rule="evenodd" d="M4.28909 19.6134C8.22734 19.6134 12.1656 19.6134 16.1039 19.6134C16.1039 18.7426 16.1039 17.8718 16.1039 17.0009C12.1656 17.0009 8.22734 17.0009 4.28909 17.0009C4.28909 17.8718 4.28909 18.7426 4.28909 19.6134Z" fill="#F9FAFA"/>
<path fill-rule="evenodd" clip-rule="evenodd" d="M24.3704 19.6134C24.4093 18.7363 24.4223 17.8525 24.4094 16.9619C23.4799 16.949 22.557 16.962 21.6409 17.0009C22.5508 17.0009 23.4606 17.0009 24.3704 17.0009C24.3704 17.8718 24.3704 18.7426 24.3704 19.6134Z" fill="#F9FAFA"/>
<path fill-rule="evenodd" clip-rule="evenodd" d="M41.9562 19.6134C41.9952 18.7363 42.008 17.8525 41.9952 16.9619C36.6208 16.949 31.2527 16.9619 25.8912 17.0009C31.2462 17.0009 36.6013 17.0009 41.9562 17.0009C41.9562 17.8718 41.9562 18.7426 41.9562 19.6134Z" fill="#F9FAFA"/>
<path fill-rule="evenodd" clip-rule="evenodd" d="M16.1039 15.5191C16.1429 11.7173 16.1559 7.90907 16.1429 4.09422C15.2201 4.09422 14.2973 4.09422 13.3745 4.09422C13.3745 7.01867 13.3745 9.94312 13.3745 12.8676C8.93585 12.9066 4.49069 12.9195 0.0389747 12.9066C0.0389747 13.7774 0.0389747 14.6482 0.0389747 15.5191C5.39395 15.5191 10.749 15.5191 16.1039 15.5191Z" fill="#F9FAFA"/>
<path fill-rule="evenodd" clip-rule="evenodd" d="M17.6247 15.5191C18.5345 15.5191 19.4444 15.5191 20.3542 15.5191C20.3542 10.346 20.3542 5.17315 20.3542 0C19.4444 0 18.5345 0 17.6247 0C17.6247 5.17315 17.6247 10.346 17.6247 15.5191Z" fill="#F9FAFA"/>
<path fill-rule="evenodd" clip-rule="evenodd" d="M21.6409 15.5191C22.5508 15.5191 23.4606 15.5191 24.3704 15.5191C24.3704 11.7108 24.3704 7.90252 24.3704 4.09422C23.4606 4.09422 22.5508 4.09422 21.6409 4.09422C21.6409 7.90252 21.6409 11.7108 21.6409 15.5191Z" fill="#F9FAFA"/>
<path fill-rule="evenodd" clip-rule="evenodd" d="M21.6409 15.5191C22.557 15.558 23.4799 15.5709 24.4094 15.558C24.4224 11.7301 24.4094 7.90895 24.3704 4.09422C24.3704 7.90252 24.3704 11.7108 24.3704 15.5191C23.4606 15.5191 22.5508 15.5191 21.6409 15.5191Z" fill="#F9FAFA"/>
<path fill-rule="evenodd" clip-rule="evenodd" d="M25.8912 15.5191C29.8425 15.5191 33.7939 15.5191 37.745 15.5191C37.745 14.6352 37.745 13.7514 37.745 12.8676C34.7036 12.8676 31.6621 12.8676 28.6207 12.8676C28.6207 8.57838 28.6207 4.28919 28.6207 0C27.7109 0 26.801 0 25.8912 0C25.8912 5.17315 25.8912 10.346 25.8912 15.5191Z" fill="#F9FAFA"/>
<path fill-rule="evenodd" clip-rule="evenodd" d="M25.8912 15.5191C29.8489 15.558 33.8134 15.5712 37.784 15.5582C37.7968 14.6546 37.784 13.7577 37.745 12.8676C37.745 13.7514 37.745 14.6352 37.745 15.5191C33.7939 15.5191 29.8425 15.5191 25.8912 15.5191Z" fill="#F9FAFA"/>
</svg>
