<svg width="40" height="40" viewBox="0 0 40 40" fill="none" xmlns="http://www.w3.org/2000/svg">
<path d="M20 0C8.95433 0 0 8.95378 0 20C0 31.0462 8.95433 40 20 40C31.0457 40 40 31.0462 40 20C40 8.95378 31.048 0 20 0ZM17.4876 19.3746V17.4937H19.3719V19.3746H17.4876ZM19.3719 20.6277V22.5086H17.4876V20.6277H19.3719ZM17.4876 16.2405V7.46378H19.3719V16.2382H17.4876V16.2405ZM2.39963 20C2.39963 11.1313 8.96123 3.79857 17.4945 2.5799V4.68154C10.9306 5.74845 5.75866 10.9289 4.69113 17.4914H16.2315V19.3769H4.50477C4.49787 19.5861 4.47717 19.7908 4.47717 20.0023C4.47717 20.2138 4.48407 20.4208 4.49327 20.63H2.41574C2.40883 20.4208 2.39963 20.2115 2.39963 20.0023V20ZM16.2315 20.6254V22.5063H7.43587V20.6254H16.2315ZM20.6281 37.5834C20.4187 37.5925 20.2117 37.5994 20 37.5994C11.1331 37.5994 3.80076 31.0416 2.57909 22.5132H4.67963C5.74945 29.0711 10.9283 34.2401 17.4853 35.3093V23.7595H19.3696V35.4932C19.579 35.5024 19.786 35.5231 19.9977 35.5231C20.2094 35.5231 20.4164 35.5139 20.6258 35.507V37.5834H20.6281ZM22.517 20.6254V22.5063H20.6327V20.6254H22.517ZM20.6327 19.3723V17.4914H22.517V19.3723H20.6327ZM22.5147 23.7595V32.5339H20.6304V23.7595H22.5147ZM37.6027 20C37.6027 28.8687 31.0411 36.2014 22.5078 37.4201V35.3185C29.0717 34.2516 34.2436 29.0688 35.3112 22.5086H23.7709V20.6231H35.4975C35.5067 20.4162 35.5251 20.2092 35.5251 20C35.5251 19.7908 35.5182 19.5815 35.509 19.3723H37.5866C37.5935 19.5815 37.6027 19.7908 37.6027 20ZM23.7709 19.3723V17.4914H32.5664V19.3723H23.7709ZM35.3204 17.4868C34.2528 10.9289 29.0717 5.75994 22.5147 4.69073V16.2405H20.6304V4.50678C20.421 4.49759 20.214 4.47689 20.0023 4.47689C19.7906 4.47689 19.5836 4.48379 19.3765 4.49299V2.41665C19.5859 2.40975 19.7929 2.40055 20.0023 2.40055C28.8692 2.40055 36.2015 8.95838 37.4232 17.4868H35.3227H35.3204Z" fill="#F9FAFA"/>
</svg>
