<svg width="44" height="32" viewBox="0 0 44 32" fill="none" xmlns="http://www.w3.org/2000/svg">
<path d="M27.4908 19.7859H25.1211V11.4839H27.4908V19.7859ZM25.6652 19.2431H26.9473V12.0274H25.6652V19.2431Z" fill="#F9FAFA"/>
<path d="M30.8602 19.7859H28.4918V11.4839H31.8874C33.2663 11.4839 34.1747 11.7511 34.7477 12.3242C35.2431 12.8196 35.4939 13.5224 35.4939 14.4122C35.4939 15.302 35.219 16.0997 34.6982 16.6074C34.152 17.1399 33.3357 17.3983 32.2034 17.3983H30.8595V19.7852L30.8602 19.7859ZM29.0346 19.2431H30.3174V16.8562H32.2041C33.188 16.8562 33.8806 16.648 34.3196 16.2199C34.7333 15.8166 34.9517 15.1921 34.9517 14.4129C34.9517 13.6338 34.7539 13.0985 34.3643 12.7096C33.8991 12.2445 33.1124 12.028 31.8881 12.028H29.0353V19.2438L29.0346 19.2431ZM32.672 15.9128H30.3174V13.0174H31.9581C32.6445 13.0174 33.0362 13.1287 33.3083 13.4015C33.5247 13.6173 33.6339 13.9615 33.6339 14.4246C33.6339 14.8877 33.5212 15.3205 33.3309 15.605C33.1262 15.9135 32.784 15.9128 32.672 15.9128ZM30.8602 15.37H32.672C32.8349 15.37 32.8603 15.3315 32.8788 15.304C33.008 15.111 33.0911 14.7654 33.0911 14.4246C33.0911 14.1154 33.0334 13.8942 32.9249 13.7856C32.7675 13.6283 32.4783 13.5602 31.9588 13.5602H30.8609V15.3693L30.8602 15.37Z" fill="#F9FAFA"/>
<path d="M42.3874 19.7859H35.9584V11.4839H42.2713V13.5492H38.3274V14.5503H41.9202V16.5916H38.3274V17.7219H42.3881L42.3874 19.7859ZM36.5012 19.2431H41.8446V18.2647H37.7839V16.0488H41.3767V15.0938H37.7839V13.0058H41.7271V12.0274H36.5012V19.2431Z" fill="#F9FAFA"/>
<path d="M4.51345 19.4925H2.69818V11.7793H5.87524C7.14291 11.7793 8.00382 11.9999 8.53905 12.5124C8.97054 12.9309 9.17941 13.5362 9.17941 14.3043C9.17941 15.3398 8.64418 16.143 7.91106 16.6315L9.66793 19.4932H7.82861C7.65409 19.4932 7.5847 19.4465 7.50362 19.3187L6.22428 17.1434C6.13084 16.9929 6.10747 16.9805 5.92128 16.9805H4.51276V19.4932L4.51345 19.4925ZM6.66607 15.5019C6.86395 15.5019 6.98007 15.4559 7.07282 15.3164C7.23566 15.0718 7.31742 14.7351 7.31742 14.3621C7.31742 13.989 7.23566 13.7457 7.06114 13.5829C6.84059 13.3843 6.49155 13.3033 5.9096 13.3033H4.51345V15.5019H6.66607Z" fill="#F9FAFA"/>
<path d="M20.956 19.8808C18.5972 19.8808 16.9496 18.1383 16.9496 15.6428C16.9496 13.1474 18.6639 11.3919 21.0254 11.3919C22.7183 11.3919 24.0403 12.3078 24.6531 13.9045L24.7322 14.11L23.2288 15.0815L22.1103 14.1649C21.6293 13.7712 21.3373 13.6448 20.9092 13.6448C19.9439 13.6448 19.3894 14.3635 19.3894 15.6181C19.3894 16.8727 19.9995 17.6031 21.1538 17.6031C21.5627 17.6031 22.0367 17.4794 22.563 17.2334L24.0039 16.567L24.9115 17.8717L24.7878 18.0298C23.9132 19.1531 22.4085 19.8794 20.9553 19.8794L20.956 19.8808ZM21.0254 11.9347C18.9456 11.9347 17.4931 13.4593 17.4931 15.6428C17.4931 17.8264 18.9174 19.338 20.956 19.338C22.1803 19.338 23.4439 18.7594 24.2333 17.8504L23.8183 17.2527L22.7918 17.7281C22.1941 18.0064 21.643 18.1486 21.1538 18.1486C19.7089 18.1486 18.8466 17.2032 18.8466 15.6195C18.8466 14.4027 19.3887 13.102 20.9092 13.102C21.5448 13.102 21.957 13.3384 22.4545 13.7451L23.2666 14.4116L24.0616 13.897C23.4995 12.63 22.4291 11.9347 21.0254 11.9347Z" fill="#F9FAFA"/>
<path d="M11.5244 19.3303C11.4777 19.4581 11.431 19.4932 11.3032 19.4932H9.58133L12.397 11.78H14.3277C14.4912 11.78 14.584 11.8508 14.6307 11.9896L17.469 19.4939H15.6778C15.55 19.4939 15.5033 19.4712 15.4566 19.331L14.3634 16.2948C14.0027 15.2814 13.6076 14.0027 13.4675 13.3974H13.4434C13.2923 14.0151 12.9549 15.2127 12.5598 16.3532L11.5244 19.3317V19.3303Z" fill="#F9FAFA"/>
<path d="M15.5184 0H13.9161V10.177H15.5184V0Z" fill="#F9FAFA"/>
<path d="M12.8478 2.71596H11.2455V10.177H12.8478V2.71596Z" fill="#F9FAFA"/>
<path d="M8.57484 8.57752H2.69893V10.177H10.1771V0H8.57484V8.57752Z" fill="#F9FAFA"/>
<path d="M18.1898 2.71596H16.5875V10.177H44V8.57813H18.1898V2.71596Z" fill="#F9FAFA"/>
<path d="M12.8484 21.0962H11.2455V31.2726H12.8484V21.0962Z" fill="#F9FAFA"/>
<path d="M16.5868 21.0947V31.2731H18.1891V22.6942H42.3324V21.0947H16.5868Z" fill="#F9FAFA"/>
<path d="M0 21.0947V22.6942H8.57409V28.5564H10.177V21.0947H0Z" fill="#F9FAFA"/>
<path d="M15.5184 21.0955H13.9161V28.5566H15.5184V21.0955Z" fill="#F9FAFA"/>
</svg>
