<svg width="37" height="40" viewBox="0 0 37 40" fill="none" xmlns="http://www.w3.org/2000/svg">
<path d="M21.6458 29.3951H7.42746V31.8404H21.6458V29.3951ZM17.8495 25.3282H7.42746V27.7735H17.8495V25.3282ZM9.69108 4.09266H7.45105V6.53797H9.69108V4.09266ZM9.69108 0H7.45105V2.4453H9.69108V0ZM9.69108 8.15959H7.45105V23.6808H9.69108V8.15959ZM21.6458 40V37.5547H11.2237V40H21.6458ZM21.6458 33.4878H7.42746V35.9331H21.6458V33.4878ZM2.24003 25.3282H0V27.7735H2.24003V25.3282ZM5.94198 29.4209H3.70195V31.8662H5.94198V29.4209ZM5.94198 25.3282H3.70195V27.7735H5.94198V25.3282ZM5.94198 8.15959H3.70195V23.6808H5.94198V8.15959ZM2.24003 12.3037H0V23.7066H2.24003V12.3037ZM2.24003 29.4209H0V31.8662H2.24003V29.4209ZM25.3713 33.4878H23.1313V35.9331H25.3713V33.4878ZM29.0968 16.3449H26.8568V31.8662H29.0968V16.3449ZM29.0968 33.4878H26.8568V35.9331H29.0968V33.4878ZM29.1204 12.2523H18.6984V14.6976H29.1204V12.2523ZM26.8568 40H29.0968V37.5547H26.8568V40ZM32.8459 8.15959H30.6059V10.5792H32.8459V8.15959ZM32.8459 16.3449H30.6059V31.8662H32.8459V16.3449ZM32.8459 12.278H30.6059V14.6976H32.8459V12.278ZM23.1313 40H25.3713V37.5547H23.1313V40ZM13.4166 0H11.1766V2.4453H13.4166V0ZM29.0968 8.15959H14.8785V10.5792H29.0968V8.15959ZM13.4166 4.09266H11.1766V6.53797H13.4166V4.09266ZM25.3713 20.4376H23.1313V31.8404H25.3713V20.4376ZM29.0968 4.06692H14.8785V6.51223H29.0968V4.06692ZM13.4166 8.15959H11.1766V19.5624H13.4166V8.15959ZM25.3241 0H14.9021V2.4453H25.3241V0ZM34.3314 27.7477H36.5714V16.3449H34.3314V27.7477ZM34.3314 8.15959V10.6049H36.5714V8.15959H34.3314ZM34.3314 14.7233H36.5714V12.278H34.3314V14.7233Z" fill="#F9FAFA"/>
</svg>
