<svg width="15" height="15" viewBox="0 0 15 15" fill="none" xmlns="http://www.w3.org/2000/svg">
<path d="M6.08333 6.75H2.75C1.64543 6.75 0.75 7.64543 0.75 8.75V11.4167C0.75 12.5212 1.64543 13.4167 2.75 13.4167H12.0833C13.1879 13.4167 14.0833 12.5212 14.0833 11.4167V8.75C14.0833 7.64543 13.1879 6.75 12.0833 6.75H11.4167M6.08333 6.75C6.08333 8.22276 7.27692 9.41634 8.74967 9.41634C10.2224 9.41634 11.4167 8.22276 11.4167 6.75M6.08333 6.75C6.08333 5.27724 7.27692 4.08301 8.74967 4.08301C10.2224 4.08301 11.4167 5.27724 11.4167 6.75M5.41667 2.74967L4.75 2.08301M8.75 1.41667V0.75M12.0833 2.74967L12.75 2.08301" stroke="#C1CBCD" stroke-width="1.5" stroke-linecap="round" stroke-linejoin="round"/>
</svg>
