<svg xmlns="http://www.w3.org/2000/svg" style="display: none;">


//ÍCONES NAVBAR

<symbol id="icon-pra-voce" viewBox="0 0 20 22" fill="none">
                            <path
                                d="M7 21V11H13V21M1 8L10 1L19 8V19C19 19.5304 18.7893 20.0391 18.4142 20.4142C18.0391 20.7893 17.5304 21 17 21H3C2.46957 21 1.96086 20.7893 1.58579 20.4142C1.21071 20.0391 1 19.5304 1 19V8Z"
                                stroke="currentColor" stroke-width="2" stroke-linecap="round" stroke-linejoin="round" />
                        </symbol>



<symbol id="icon-conteudos" viewBox="0 0 22 22" fill="none" >
                            <path
                                d="M11 21C16.5228 21 21 16.5228 21 11C21 5.47715 16.5228 1 11 1C5.47715 1 1 5.47715 1 11C1 16.5228 5.47715 21 11 21Z"
                                stroke="currentColor" stroke-width="2" stroke-linecap="round" stroke-linejoin="round" />
                            <path d="M9 7L15 11L9 15V7Z" stroke="currentColor" stroke-width="2" stroke-linecap="round"
                                stroke-linejoin="round" />
                        </symbol>


 <symbol id="icon-mentoria" viewBox="0 0 20 22" fill="none">
                            <path
                                d="M14 1V5M6 1V5M1 9H19M3 3H17C18.1046 3 19 3.89543 19 5V19C19 20.1046 18.1046 21 17 21H3C1.89543 21 1 20.1046 1 19V5C1 3.89543 1.89543 3 3 3Z"
                                stroke="currentColor" stroke-width="2" stroke-linecap="round" stroke-linejoin="round" />
                        </symbol>


<symbol id="icon-treinamento" viewBox="0 0 22 22" fill="none">
                            <path
                                d="M1 16L6 21M6 16L1 21M15 3L17 5L21 1M2.15376 10.6173C2.24311 9.0996 2.71545 7.62929 3.52673 6.34354C4.338 5.05778 5.46176 3.9985 6.79315 3.26452C8.12454 2.53054 9.62016 2.14579 11.1405 2.14617M11.1405 20.135C12.6608 20.1353 14.1564 19.7506 15.4878 19.0166C16.8192 18.2826 17.9429 17.2234 18.7542 15.9376C19.5655 14.6518 20.0378 13.1815 20.1272 11.6639"
                                stroke="currentColor" stroke-width="2" stroke-linecap="round" stroke-linejoin="round" />
                        </symbol>

<symbol id="icon-metricas" viewBox="0 0 14 16" fill="none" >
                            <path d="M1 15L1 6M13 15V9M7 15V1" stroke="currentColor" stroke-width="2"
                                stroke-linecap="round" stroke-linejoin="round" />
                        </symbol>

//ÍCONES MAIN-SECTION

<symbol id="icon-clm" viewBox="0 0 31 32" fill="none"
                                xmlns="http://www.w3.org/2000/svg">
                                <path opacity="0.5" fill-rule="evenodd" clip-rule="evenodd"
                                    d="M10.3333 0V10.6667H0V7.61905H7.38095V0H10.3333ZM14.7619 0V10.6667H11.8095V0H14.7619ZM19.1905 0V10.6667H16.2381V0H19.1905ZM23.619 0V7.61905H31V10.6667H20.6667V0H23.619ZM0 12.1905H10.3333V15.2381H0V12.1905ZM11.8095 12.1905H14.7767V15.2381H11.8095V12.1905ZM16.2381 12.1905H19.2052V15.2381H16.2381V12.1905ZM20.6667 12.1905H31V15.2381H20.6667V12.1905ZM0 16.7619H10.3333V19.8095H0V16.7619ZM11.8095 16.7619H14.7767V19.8095H11.8095V16.7619ZM16.2381 16.7619H19.2052V19.8095H16.2381V16.7619ZM20.6667 16.7619H31V19.8095H20.6667V16.7619ZM0 21.3333H10.3333V32H7.38095V24.381H0V21.3333ZM14.7619 21.3333V32H11.8095V21.3333H14.7619ZM19.1905 21.3333V32H16.2381V21.3333H19.1905ZM20.6667 21.3333H31V24.381H23.619V32H20.6667V21.3333Z"
                                    fill="currentColor" />
                            </symbol>


<symbol id="icon-aulas" viewBox="0 0 22 22" fill="none"
                                        xmlns="http://www.w3.org/2000/svg">
                                        <path
                                            d="M11 21C16.5228 21 21 16.5228 21 11C21 5.47715 16.5228 1 11 1C5.47715 1 1 5.47715 1 11C1 16.5228 5.47715 21 11 21Z"
                                            stroke="currentColor" stroke-width="2" stroke-linecap="round"
                                            stroke-linejoin="round" />
                                        <path d="M9 7L15 11L9 15V7Z" stroke="currentColor" stroke-width="2"
                                            stroke-linecap="round" stroke-linejoin="round" />
                                    </symbol>


<symbol id="icon-apostila" viewBox="0 0 15 14" fill="none"
                                        xmlns="http://www.w3.org/2000/svg">
                                        <path
                                            d="M7.41667 3.41667C7.41667 2.70942 7.13571 2.03115 6.63562 1.53105C6.13552 1.03095 5.45724 0.75 4.75 0.75H0.75V10.75H5.41667C5.9471 10.75 6.45581 10.9607 6.83088 11.3358C7.20595 11.7109 7.41667 12.2196 7.41667 12.75M7.41667 3.41667V12.75M7.41667 3.41667C7.41667 2.70942 7.69762 2.03115 8.19772 1.53105C8.69781 1.03095 9.37609 0.75 10.0833 0.75H14.0833V10.75H9.41667C8.88623 10.75 8.37753 10.9607 8.00245 11.3358C7.62738 11.7109 7.41667 12.2196 7.41667 12.75"
                                            stroke="currentColor" stroke-width="1.5" stroke-linecap="round"
                                            stroke-linejoin="round" />
                                    </symbol>        


<symbol id="icon-questoes" viewBox="0 0 15 14" fill="none"
                                        xmlns="http://www.w3.org/2000/svg">
                                        <path
                                            d="M4.75 6.08333L6.75 8.08333L13.4167 1.41667M12.75 6.75V11.4167C12.75 11.7703 12.6095 12.1094 12.3595 12.3595C12.1094 12.6095 11.7703 12.75 11.4167 12.75H2.08333C1.72971 12.75 1.39057 12.6095 1.14052 12.3595C0.890476 12.1094 0.75 11.7703 0.75 11.4167V2.08333C0.75 1.72971 0.890476 1.39057 1.14052 1.14052C1.39057 0.890476 1.72971 0.75 2.08333 0.75H9.41667"
                                            stroke="currentColor" stroke-width="1.5" stroke-linecap="round"
                                            stroke-linejoin="round" />
                                    </symbol>                                                                

//ÍCONES MODAL SWITCH
<symbol id="icon-escuro" viewBox="0 0 40 40" fill="none">
                            <path
                                d="M34.2401 30.9336C32.1489 33.6383 29.3306 35.6916 26.115 36.8531C22.8995 38.0146 19.4196 38.2362 16.0826 37.4922C12.7457 36.7481 9.68962 35.0691 7.27208 32.6516C4.85454 30.234 3.17551 27.178 2.43145 23.841C1.68738 20.504 1.90906 17.0242 3.07055 13.8086C4.23204 10.593 6.28529 7.77473 8.99006 5.68351C11.6948 3.59228 14.9392 2.31461 18.3436 2C16.3505 4.69653 15.3913 8.0189 15.6407 11.3628C15.8901 14.7068 17.3314 17.8501 19.7024 20.2212C22.0735 22.5923 25.2169 24.0336 28.5608 24.2829C31.9047 24.5323 35.2271 23.5732 37.9236 21.58C37.9252 24.9721 36.2707 28.3072 34.2401 30.9336Z"
                                stroke="currentColor" stroke-width="4" stroke-linecap="round" stroke-linejoin="round" />
                        </symbol>


                        <symbol id="icon-claro" viewBox="0 0 48 48" fill="none"
                            xmlns="http://www.w3.org/2000/svg">
                            <path
                                d="M24 42V46M36.72 36.72L39.56 39.56M8.44005 39.56L11.2801 36.72M42 24H46M2 24H6M36.72 11.2801L39.56 8.44005M8.44005 8.44005L11.2801 11.2801M24 2V6M34 24C34 29.5228 29.5228 34 24 34C18.4772 34 14 29.5228 14 24C14 18.4772 18.4772 14 24 14C29.5228 14 34 18.4772 34 24Z"
                                stroke="currentColor" stroke-width="4" stroke-linecap="round" stroke-linejoin="round" />
                        </symbol>


// ÍCONES MODAL-PRODUTOS

  <symbol id="icon-cpmed" viewBox="0 0 37 40">
    <path 
      d="M21.6458 29.3951H7.42746V31.8404H21.6458V29.3951ZM17.8495 25.3282H7.42746V27.7735H17.8495V25.3282ZM9.69108 4.09266H7.45105V6.53797H9.69108V4.09266ZM9.69108 0H7.45105V2.4453H9.69108V0ZM9.69108 8.15959H7.45105V23.6808H9.69108V8.15959ZM21.6458 40V37.5547H11.2237V40H21.6458ZM21.6458 33.4878H7.42746V35.9331H21.6458V33.4878ZM2.24003 25.3282H0V27.7735H2.24003V25.3282ZM5.94198 29.4209H3.70195V31.8662H5.94198V29.4209ZM5.94198 25.3282H3.70195V27.7735H5.94198V25.3282ZM5.94198 8.15959H3.70195V23.6808H5.94198V8.15959ZM2.24003 12.3037H0V23.7066H2.24003V12.3037ZM2.24003 29.4209H0V31.8662H2.24003V29.4209ZM25.3713 33.4878H23.1313V35.9331H25.3713V33.4878ZM29.0968 16.3449H26.8568V31.8662H29.0968V16.3449ZM29.0968 33.4878H26.8568V35.9331H29.0968V33.4878ZM29.1204 12.2523H18.6984V14.6976H29.1204V12.2523ZM26.8568 40H29.0968V37.5547H26.8568V40ZM32.8459 8.15959H30.6059V10.5792H32.8459V8.15959ZM32.8459 16.3449H30.6059V31.8662H32.8459V16.3449ZM32.8459 12.278H30.6059V14.6976H32.8459V12.278ZM23.1313 40H25.3713V37.5547H23.1313V40ZM13.4166 0H11.1766V2.4453H13.4166V0ZM29.0968 8.15959H14.8785V10.5792H29.0968V8.15959ZM13.4166 4.09266H11.1766V6.53797H13.4166V4.09266ZM25.3713 20.4376H23.1313V31.8404H25.3713V20.4376ZM29.0968 4.06692H14.8785V6.51223H29.0968V4.06692ZM13.4166 8.15959H11.1766V19.5624H13.4166V8.15959ZM25.3241 0H14.9021V2.4453H25.3241V0ZM34.3314 27.7477H36.5714V16.3449H34.3314V27.7477ZM34.3314 8.15959V10.6049H36.5714V8.15959H34.3314ZM34.3314 14.7233H36.5714V12.278H34.3314V14.7233Z" 
      fill="currentColor" 
    />
  </symbol>


  


<symbol id="icon-medcurso" viewBox=" 0 0 42 41" fill="none" xmlns="http://www.w3.org/2000/svg">
                        <path fill-rule="evenodd" clip-rule="evenodd"
                            d="M13.3745 40.4354C14.2843 40.4354 15.1941 40.4354 16.104 40.4354C16.104 35.2754 16.104 30.1154 16.104 24.9554C12.1657 24.9554 8.22745 24.9554 4.28919 24.9554C4.28919 25.8262 4.28919 26.697 4.28919 27.5679C7.32418 27.5549 10.3526 27.5679 13.3745 27.6068C13.3745 31.8831 13.3745 36.1592 13.3745 40.4354Z"
                            fill="currentColor" />
                        <path fill-rule="evenodd" clip-rule="evenodd"
                            d="M13.3745 40.4354C14.2906 40.4743 15.2134 40.4874 16.143 40.4745C16.1559 35.2949 16.143 30.1218 16.104 24.9554C16.104 30.1154 16.104 35.2754 16.104 40.4354C15.1941 40.4354 14.2843 40.4354 13.3745 40.4354Z"
                            fill="currentColor" />
                        <path fill-rule="evenodd" clip-rule="evenodd"
                            d="M21.6409 40.4354C22.5508 40.4354 23.4606 40.4354 24.3704 40.4354C24.3704 35.2754 24.3704 30.1154 24.3704 24.9554C23.4606 24.9554 22.5508 24.9554 21.6409 24.9554C21.6409 30.1154 21.6409 35.2754 21.6409 40.4354Z"
                            fill="currentColor" />
                        <path fill-rule="evenodd" clip-rule="evenodd"
                            d="M21.6409 40.4354C22.557 40.4743 23.4799 40.4874 24.4094 40.4745C24.4094 35.2884 24.4094 30.1024 24.4094 24.9164C23.4799 24.9035 22.557 24.9164 21.6409 24.9554C22.5508 24.9554 23.4606 24.9554 24.3704 24.9554C24.3704 30.1154 24.3704 35.2754 24.3704 40.4354C23.4606 40.4354 22.5508 40.4354 21.6409 40.4354Z"
                            fill="currentColor" />
                        <path fill-rule="evenodd" clip-rule="evenodd"
                            d="M17.6247 36.3801C18.5345 36.3801 19.4444 36.3801 20.3542 36.3801C20.3542 32.5588 20.3542 28.7375 20.3542 24.9163C19.4444 24.9163 18.5345 24.9163 17.6247 24.9163C17.6247 28.7375 17.6247 32.5588 17.6247 36.3801Z"
                            fill="currentColor" />
                        <path fill-rule="evenodd" clip-rule="evenodd"
                            d="M28.6207 36.3801C28.6207 33.4427 28.6207 30.5052 28.6207 27.5678C33.0787 27.5678 37.5372 27.5678 41.9952 27.5678C41.9952 26.6839 41.9952 25.8001 41.9952 24.9163C36.6271 24.9163 31.2592 24.9163 25.8912 24.9163C25.8912 28.7375 25.8912 32.5588 25.8912 36.3801C26.801 36.3801 27.7109 36.3801 28.6207 36.3801Z"
                            fill="currentColor" />
                        <path fill-rule="evenodd" clip-rule="evenodd"
                            d="M28.6207 36.3801C28.6597 33.4622 28.6726 30.5378 28.6596 27.6067C33.1114 27.6197 37.5566 27.6067 41.9952 27.5678C37.5372 27.5678 33.0787 27.5678 28.6207 27.5678C28.6207 30.5052 28.6207 33.4427 28.6207 36.3801Z"
                            fill="currentColor" />
                        <path fill-rule="evenodd" clip-rule="evenodd"
                            d="M13.3745 27.6068C10.3526 27.5679 7.32418 27.5549 4.28919 27.5679C4.28919 26.697 4.28919 25.8262 4.28919 24.9554C8.22745 24.9554 12.1657 24.9554 16.104 24.9554C12.1593 24.9164 8.20801 24.9034 4.25021 24.9164C4.25021 25.8132 4.25021 26.7101 4.25021 27.6069C7.29164 27.6069 10.333 27.6068 13.3745 27.6068Z"
                            fill="currentColor" />
                        <path fill-rule="evenodd" clip-rule="evenodd"
                            d="M16.104 20.8611C10.7425 20.8222 5.37451 20.8092 0 20.8222C0 21.719 0 22.6158 0 23.5126C5.38098 23.5126 10.762 23.5126 16.143 23.5126C16.1559 22.6221 16.1428 21.7382 16.104 20.8611Z"
                            fill="currentColor" />
                        <path fill-rule="evenodd" clip-rule="evenodd"
                            d="M16.104 20.8611C10.749 20.8611 5.39395 20.861 0.0389747 20.861C0.0389747 21.7318 0.0389747 22.6027 0.0389747 23.4735C5.39395 23.4735 10.749 23.4735 16.1039 23.4735C16.1039 22.6027 16.104 21.732 16.104 20.8611Z"
                            fill="currentColor" />
                        <path fill-rule="evenodd" clip-rule="evenodd"
                            d="M20.3542 23.5126C20.3542 22.6288 20.3542 21.745 20.3542 20.8611C19.4444 20.8611 18.5345 20.8611 17.6247 20.8611C17.6247 21.745 17.6247 22.6288 17.6247 23.5126C18.5345 23.5126 19.4444 23.5126 20.3542 23.5126Z"
                            fill="currentColor" />
                        <path fill-rule="evenodd" clip-rule="evenodd"
                            d="M21.6409 23.4735C22.5508 23.4735 23.4606 23.4735 24.3704 23.4735C24.3704 22.6027 24.3704 21.7318 24.3704 20.861C23.4606 20.861 22.5508 20.861 21.6409 20.861C21.6409 21.7318 21.6409 22.6027 21.6409 23.4735Z"
                            fill="currentColor" />
                        <path fill-rule="evenodd" clip-rule="evenodd"
                            d="M21.6409 23.4735C22.557 23.5124 23.4799 23.5255 24.4094 23.5126C24.4094 22.6158 24.4094 21.719 24.4094 20.8221C23.4799 20.8092 22.557 20.8221 21.6409 20.861C22.5508 20.861 23.4606 20.861 24.3704 20.861C24.3704 21.7318 24.3704 22.6027 24.3704 23.4735C23.4606 23.4735 22.5508 23.4735 21.6409 23.4735Z"
                            fill="currentColor" />
                        <path fill-rule="evenodd" clip-rule="evenodd"
                            d="M25.8912 23.5126C29.8425 23.5126 33.7939 23.5126 37.745 23.5126C37.745 22.6288 37.745 21.745 37.745 20.8611C33.7939 20.8611 29.8425 20.8611 25.8912 20.8611C25.8912 21.745 25.8912 22.6288 25.8912 23.5126Z"
                            fill="currentColor" />
                        <path fill-rule="evenodd" clip-rule="evenodd"
                            d="M20.3542 23.5126C20.3931 22.6226 20.4061 21.7257 20.3932 20.8222C19.4636 20.8092 18.5408 20.8222 17.6247 20.8611C18.5345 20.8611 19.4444 20.8611 20.3542 20.8611C20.3542 21.745 20.3542 22.6288 20.3542 23.5126Z"
                            fill="currentColor" />
                        <path fill-rule="evenodd" clip-rule="evenodd"
                            d="M17.6247 19.6134C18.5345 19.6134 19.4444 19.6134 20.3542 19.6134C20.3542 18.7296 20.3542 17.8458 20.3542 16.9619C19.4444 16.9619 18.5345 16.9619 17.6247 16.9619C17.6247 17.8458 17.6247 18.7296 17.6247 19.6134Z"
                            fill="currentColor" />
                        <path fill-rule="evenodd" clip-rule="evenodd"
                            d="M24.3704 19.6134C24.3704 18.7426 24.3704 17.8718 24.3704 17.0009C23.4606 17.0009 22.5508 17.0009 21.6409 17.0009C21.6409 17.8718 21.6409 18.7426 21.6409 19.6134C22.5508 19.6134 23.4606 19.6134 24.3704 19.6134Z"
                            fill="currentColor" />
                        <path fill-rule="evenodd" clip-rule="evenodd"
                            d="M41.9562 19.6134C41.9562 18.7426 41.9562 17.8718 41.9562 17.0009C36.6013 17.0009 31.2462 17.0009 25.8912 17.0009C25.8912 17.8718 25.8912 18.7426 25.8912 19.6134C31.2462 19.6134 36.6013 19.6134 41.9562 19.6134Z"
                            fill="currentColor" />
                        <path fill-rule="evenodd" clip-rule="evenodd"
                            d="M4.28909 19.6134C4.28909 18.7426 4.28909 17.8718 4.28909 17.0009C8.22734 17.0009 12.1656 17.0009 16.1039 17.0009C16.1039 17.8718 16.1039 18.7426 16.1039 19.6134C16.1427 18.7363 16.1558 17.8525 16.1428 16.9619C12.1786 16.9619 8.21436 16.9619 4.25009 16.9619C4.23719 17.8525 4.25021 18.7363 4.28909 19.6134Z"
                            fill="currentColor" />
                        <path fill-rule="evenodd" clip-rule="evenodd"
                            d="M4.28909 19.6134C8.22734 19.6134 12.1656 19.6134 16.1039 19.6134C16.1039 18.7426 16.1039 17.8718 16.1039 17.0009C12.1656 17.0009 8.22734 17.0009 4.28909 17.0009C4.28909 17.8718 4.28909 18.7426 4.28909 19.6134Z"
                            fill="currentColor" />
                        <path fill-rule="evenodd" clip-rule="evenodd"
                            d="M24.3704 19.6134C24.4093 18.7363 24.4223 17.8525 24.4094 16.9619C23.4799 16.949 22.557 16.962 21.6409 17.0009C22.5508 17.0009 23.4606 17.0009 24.3704 17.0009C24.3704 17.8718 24.3704 18.7426 24.3704 19.6134Z"
                            fill="currentColor" />
                        <path fill-rule="evenodd" clip-rule="evenodd"
                            d="M41.9562 19.6134C41.9952 18.7363 42.008 17.8525 41.9952 16.9619C36.6208 16.949 31.2527 16.9619 25.8912 17.0009C31.2462 17.0009 36.6013 17.0009 41.9562 17.0009C41.9562 17.8718 41.9562 18.7426 41.9562 19.6134Z"
                            fill="currentColor" />
                        <path fill-rule="evenodd" clip-rule="evenodd"
                            d="M16.1039 15.5191C16.1429 11.7173 16.1559 7.90907 16.1429 4.09422C15.2201 4.09422 14.2973 4.09422 13.3745 4.09422C13.3745 7.01867 13.3745 9.94312 13.3745 12.8676C8.93585 12.9066 4.49069 12.9195 0.0389747 12.9066C0.0389747 13.7774 0.0389747 14.6482 0.0389747 15.5191C5.39395 15.5191 10.749 15.5191 16.1039 15.5191Z"
                            fill="currentColor" />
                        <path fill-rule="evenodd" clip-rule="evenodd"
                            d="M17.6247 15.5191C18.5345 15.5191 19.4444 15.5191 20.3542 15.5191C20.3542 10.346 20.3542 5.17315 20.3542 0C19.4444 0 18.5345 0 17.6247 0C17.6247 5.17315 17.6247 10.346 17.6247 15.5191Z"
                            fill="currentColor" />
                        <path fill-rule="evenodd" clip-rule="evenodd"
                            d="M21.6409 15.5191C22.5508 15.5191 23.4606 15.5191 24.3704 15.5191C24.3704 11.7108 24.3704 7.90252 24.3704 4.09422C23.4606 4.09422 22.5508 4.09422 21.6409 4.09422C21.6409 7.90252 21.6409 11.7108 21.6409 15.5191Z"
                            fill="currentColor" />
                        <path fill-rule="evenodd" clip-rule="evenodd"
                            d="M21.6409 15.5191C22.557 15.558 23.4799 15.5709 24.4094 15.558C24.4224 11.7301 24.4094 7.90895 24.3704 4.09422C24.3704 7.90252 24.3704 11.7108 24.3704 15.5191C23.4606 15.5191 22.5508 15.5191 21.6409 15.5191Z"
                            fill="currentColor" />
                        <path fill-rule="evenodd" clip-rule="evenodd"
                            d="M25.8912 15.5191C29.8425 15.5191 33.7939 15.5191 37.745 15.5191C37.745 14.6352 37.745 13.7514 37.745 12.8676C34.7036 12.8676 31.6621 12.8676 28.6207 12.8676C28.6207 8.57838 28.6207 4.28919 28.6207 0C27.7109 0 26.801 0 25.8912 0C25.8912 5.17315 25.8912 10.346 25.8912 15.5191Z"
                            fill="currentColor" />
                        <path fill-rule="evenodd" clip-rule="evenodd"
                            d="M25.8912 15.5191C29.8489 15.558 33.8134 15.5712 37.784 15.5582C37.7968 14.6546 37.784 13.7577 37.745 12.8676C37.745 13.7514 37.745 14.6352 37.745 15.5191C33.7939 15.5191 29.8425 15.5191 25.8912 15.5191Z"
                            fill="currentColor" />
                    </symbol>




<symbol id="icon-racipe" viewBox="0 0 44 32">
                        <path
                            d="M27.4908 19.7859H25.1211V11.4839H27.4908V19.7859ZM25.6652 19.2431H26.9473V12.0274H25.6652V19.2431Z"
                            fill="currentColor" />
                        <path
                            d="M30.8602 19.7859H28.4918V11.4839H31.8874C33.2663 11.4839 34.1747 11.7511 34.7477 12.3242C35.2431 12.8196 35.4939 13.5224 35.4939 14.4122C35.4939 15.302 35.219 16.0997 34.6982 16.6074C34.152 17.1399 33.3357 17.3983 32.2034 17.3983H30.8595V19.7852L30.8602 19.7859ZM29.0346 19.2431H30.3174V16.8562H32.2041C33.188 16.8562 33.8806 16.648 34.3196 16.2199C34.7333 15.8166 34.9517 15.1921 34.9517 14.4129C34.9517 13.6338 34.7539 13.0985 34.3643 12.7096C33.8991 12.2445 33.1124 12.028 31.8881 12.028H29.0353V19.2438L29.0346 19.2431ZM32.672 15.9128H30.3174V13.0174H31.9581C32.6445 13.0174 33.0362 13.1287 33.3083 13.4015C33.5247 13.6173 33.6339 13.9615 33.6339 14.4246C33.6339 14.8877 33.5212 15.3205 33.3309 15.605C33.1262 15.9135 32.784 15.9128 32.672 15.9128ZM30.8602 15.37H32.672C32.8349 15.37 32.8603 15.3315 32.8788 15.304C33.008 15.111 33.0911 14.7654 33.0911 14.4246C33.0911 14.1154 33.0334 13.8942 32.9249 13.7856C32.7675 13.6283 32.4783 13.5602 31.9588 13.5602H30.8609V15.3693L30.8602 15.37Z"
                            fill="currentColor" />
                        <path
                            d="M42.3874 19.7859H35.9584V11.4839H42.2713V13.5492H38.3274V14.5503H41.9202V16.5916H38.3274V17.7219H42.3881L42.3874 19.7859ZM36.5012 19.2431H41.8446V18.2647H37.7839V16.0488H41.3767V15.0938H37.7839V13.0058H41.7271V12.0274H36.5012V19.2431Z"
                            fill="currentColor" />
                        <path
                            d="M4.51345 19.4925H2.69818V11.7793H5.87524C7.14291 11.7793 8.00382 11.9999 8.53905 12.5124C8.97054 12.9309 9.17941 13.5362 9.17941 14.3043C9.17941 15.3398 8.64418 16.143 7.91106 16.6315L9.66793 19.4932H7.82861C7.65409 19.4932 7.5847 19.4465 7.50362 19.3187L6.22428 17.1434C6.13084 16.9929 6.10747 16.9805 5.92128 16.9805H4.51276V19.4932L4.51345 19.4925ZM6.66607 15.5019C6.86395 15.5019 6.98007 15.4559 7.07282 15.3164C7.23566 15.0718 7.31742 14.7351 7.31742 14.3621C7.31742 13.989 7.23566 13.7457 7.06114 13.5829C6.84059 13.3843 6.49155 13.3033 5.9096 13.3033H4.51345V15.5019H6.66607Z"
                            fill="currentColor" />
                        <path
                            d="M20.956 19.8808C18.5972 19.8808 16.9496 18.1383 16.9496 15.6428C16.9496 13.1474 18.6639 11.3919 21.0254 11.3919C22.7183 11.3919 24.0403 12.3078 24.6531 13.9045L24.7322 14.11L23.2288 15.0815L22.1103 14.1649C21.6293 13.7712 21.3373 13.6448 20.9092 13.6448C19.9439 13.6448 19.3894 14.3635 19.3894 15.6181C19.3894 16.8727 19.9995 17.6031 21.1538 17.6031C21.5627 17.6031 22.0367 17.4794 22.563 17.2334L24.0039 16.567L24.9115 17.8717L24.7878 18.0298C23.9132 19.1531 22.4085 19.8794 20.9553 19.8794L20.956 19.8808ZM21.0254 11.9347C18.9456 11.9347 17.4931 13.4593 17.4931 15.6428C17.4931 17.8264 18.9174 19.338 20.956 19.338C22.1803 19.338 23.4439 18.7594 24.2333 17.8504L23.8183 17.2527L22.7918 17.7281C22.1941 18.0064 21.643 18.1486 21.1538 18.1486C19.7089 18.1486 18.8466 17.2032 18.8466 15.6195C18.8466 14.4027 19.3887 13.102 20.9092 13.102C21.5448 13.102 21.957 13.3384 22.4545 13.7451L23.2666 14.4116L24.0616 13.897C23.4995 12.63 22.4291 11.9347 21.0254 11.9347Z"
                            fill="currentColor" />
                        <path
                            d="M11.5244 19.3303C11.4777 19.4581 11.431 19.4932 11.3032 19.4932H9.58133L12.397 11.78H14.3277C14.4912 11.78 14.584 11.8508 14.6307 11.9896L17.469 19.4939H15.6778C15.55 19.4939 15.5033 19.4712 15.4566 19.331L14.3634 16.2948C14.0027 15.2814 13.6076 14.0027 13.4675 13.3974H13.4434C13.2923 14.0151 12.9549 15.2127 12.5598 16.3532L11.5244 19.3317V19.3303Z"
                            fill="currentColor" />
                        <path d="M15.5184 0H13.9161V10.177H15.5184V0Z" fill="currentColor" />
                        <path d="M12.8478 2.71596H11.2455V10.177H12.8478V2.71596Z" fill="currentColor" />
                        <path d="M8.57484 8.57752H2.69893V10.177H10.1771V0H8.57484V8.57752Z" fill="currentColor" />
                        <path d="M18.1898 2.71596H16.5875V10.177H44V8.57813H18.1898V2.71596Z" fill="currentColor" />
                        <path d="M12.8484 21.0962H11.2455V31.2726H12.8484V21.0962Z" fill="currentColor" />
                        <path d="M16.5868 21.0947V31.2731H18.1891V22.6942H42.3324V21.0947H16.5868Z"
                            fill="currentColor" />
                        <path d="M0 21.0947V22.6942H8.57409V28.5564H10.177V21.0947H0Z" fill="currentColor" />
                        <path d="M15.5184 21.0955H13.9161V28.5566H15.5184V21.0955Z" fill="currentColor" />
                    </symbol>




<symbol id="icon-med" viewBox="0 0 40 40">
                        <path
                            d="M20 0C8.95433 0 0 8.95378 0 20C0 31.0462 8.95433 40 20 40C31.0457 40 40 31.0462 40 20C40 8.95378 31.048 0 20 0ZM17.4876 19.3746V17.4937H19.3719V19.3746H17.4876ZM19.3719 20.6277V22.5086H17.4876V20.6277H19.3719ZM17.4876 16.2405V7.46378H19.3719V16.2382H17.4876V16.2405ZM2.39963 20C2.39963 11.1313 8.96123 3.79857 17.4945 2.5799V4.68154C10.9306 5.74845 5.75866 10.9289 4.69113 17.4914H16.2315V19.3769H4.50477C4.49787 19.5861 4.47717 19.7908 4.47717 20.0023C4.47717 20.2138 4.48407 20.4208 4.49327 20.63H2.41574C2.40883 20.4208 2.39963 20.2115 2.39963 20.0023V20ZM16.2315 20.6254V22.5063H7.43587V20.6254H16.2315ZM20.6281 37.5834C20.4187 37.5925 20.2117 37.5994 20 37.5994C11.1331 37.5994 3.80076 31.0416 2.57909 22.5132H4.67963C5.74945 29.0711 10.9283 34.2401 17.4853 35.3093V23.7595H19.3696V35.4932C19.579 35.5024 19.786 35.5231 19.9977 35.5231C20.2094 35.5231 20.4164 35.5139 20.6258 35.507V37.5834H20.6281ZM22.517 20.6254V22.5063H20.6327V20.6254H22.517ZM20.6327 19.3723V17.4914H22.517V19.3723H20.6327ZM22.5147 23.7595V32.5339H20.6304V23.7595H22.5147ZM37.6027 20C37.6027 28.8687 31.0411 36.2014 22.5078 37.4201V35.3185C29.0717 34.2516 34.2436 29.0688 35.3112 22.5086H23.7709V20.6231H35.4975C35.5067 20.4162 35.5251 20.2092 35.5251 20C35.5251 19.7908 35.5182 19.5815 35.509 19.3723H37.5866C37.5935 19.5815 37.6027 19.7908 37.6027 20ZM23.7709 19.3723V17.4914H32.5664V19.3723H23.7709ZM35.3204 17.4868C34.2528 10.9289 29.0717 5.75994 22.5147 4.69073V16.2405H20.6304V4.50678C20.421 4.49759 20.214 4.47689 20.0023 4.47689C19.7906 4.47689 19.5836 4.48379 19.3765 4.49299V2.41665C19.5859 2.40975 19.7929 2.40055 20.0023 2.40055C28.8692 2.40055 36.2015 8.95838 37.4232 17.4868H35.3227H35.3204Z"
                            fill="currentColor" />
                    </symbol>

// ÍCONE X

<symbol id="icon-close" viewBox="0 0 14 14" fill="none">
                    <path d="M13 1L1 13M1 1L13 13" stroke="currentColor" stroke-width="2" stroke-linecap="round"
                        stroke-linejoin="round" />
                </symbol>


// ÍCONES TASK-PANEL

<symbol id="icon-cirurgia-1" viewBox="0 0 15 15" fill="none">
<path d="M6.08333 6.75H2.75C1.64543 6.75 0.75 7.64543 0.75 8.75V11.4167C0.75 12.5212 1.64543 13.4167 2.75 13.4167H12.0833C13.1879 13.4167 14.0833 12.5212 14.0833 11.4167V8.75C14.0833 7.64543 13.1879 6.75 12.0833 6.75H11.4167M6.08333 6.75C6.08333 8.22276 7.27692 9.41634 8.74967 9.41634C10.2224 9.41634 11.4167 8.22276 11.4167 6.75M6.08333 6.75C6.08333 5.27724 7.27692 4.08301 8.74967 4.08301C10.2224 4.08301 11.4167 5.27724 11.4167 6.75M5.41667 2.74967L4.75 2.08301M8.75 1.41667V0.75M12.0833 2.74967L12.75 2.08301" stroke="currentColor" stroke-width="1.5" stroke-linecap="round" stroke-linejoin="round"/>


</symbol>


<symbol id="icon-cirurgia-geral" viewBox="0 0 14 10" fill="none"
                                xmlns="http://www.w3.org/2000/svg">
                                <path
                                    d="M4.08333 0.75H12.75M4.08333 4.75H12.75M4.08333 8.75H12.75M0.75 0.75H0.756667M0.75 4.75H0.756667M0.75 8.75H0.756667"
                                    stroke="currentColor" stroke-width="1.5" stroke-linecap="round"
                                    stroke-linejoin="round" />
                            </symbol>



<symbol id="icon-nefrologia" viewBox="0 0 11 14" fill="none"
                                xmlns="http://www.w3.org/2000/svg">
                                <path
                                    d="M10.0833 12.75L5.41667 9.41667L0.75 12.75V2.08333C0.75 1.72971 0.890476 1.39057 1.14052 1.14052C1.39057 0.890476 1.72971 0.75 2.08333 0.75H8.75C9.10362 0.75 9.44276 0.890476 9.69281 1.14052C9.94286 1.39057 10.0833 1.72971 10.0833 2.08333V12.75Z"
                                    stroke="currentColor" stroke-width="1.5" stroke-linecap="round"
                                    stroke-linejoin="round" />
                            </symbol>


<symbol id="icon-seta-lateral" viewBox="0 0 14 12" fill="none" >
<path d="M8 11L13 6L8 1M1 11L6 6L1 1" stroke="currentColor" stroke-width="2" stroke-linecap="round" stroke-linejoin="round"/>
</symbol>



  </svg>
