<svg width="31" height="32" viewBox="0 0 31 32" fill="none" xmlns="http://www.w3.org/2000/svg">
<path opacity="0.5" fill-rule="evenodd" clip-rule="evenodd" d="M10.3333 0V10.6667H0V7.61905H7.38095V0H10.3333ZM14.7619 0V10.6667H11.8095V0H14.7619ZM19.1905 0V10.6667H16.2381V0H19.1905ZM23.619 0V7.61905H31V10.6667H20.6667V0H23.619ZM0 12.1905H10.3333V15.2381H0V12.1905ZM11.8095 12.1905H14.7767V15.2381H11.8095V12.1905ZM16.2381 12.1905H19.2052V15.2381H16.2381V12.1905ZM20.6667 12.1905H31V15.2381H20.6667V12.1905ZM0 16.7619H10.3333V19.8095H0V16.7619ZM11.8095 16.7619H14.7767V19.8095H11.8095V16.7619ZM16.2381 16.7619H19.2052V19.8095H16.2381V16.7619ZM20.6667 16.7619H31V19.8095H20.6667V16.7619ZM0 21.3333H10.3333V32H7.38095V24.381H0V21.3333ZM14.7619 21.3333V32H11.8095V21.3333H14.7619ZM19.1905 21.3333V32H16.2381V21.3333H19.1905ZM20.6667 21.3333H31V24.381H23.619V32H20.6667V21.3333Z" fill="#F9FAFA"/>
</svg>
